<svg xmlns="http://www.w3.org/2000/svg" xmlns:xlink="http://www.w3.org/1999/xlink" width="2000" zoomAndPan="magnify" viewBox="0 0 1500 1499.999933" height="2000" preserveAspectRatio="xMidYMid meet" version="1.0"><defs><clipPath id="db4be6ba88"><path d="M 66.96875 66.96875 L 1432.71875 66.96875 L 1432.71875 1432.71875 L 66.96875 1432.71875 Z M 66.96875 66.96875 " clip-rule="nonzero"/></clipPath><clipPath id="eb686453aa"><path d="M 1432.71875 749.84375 C 1432.71875 761.019531 1432.445312 772.1875 1431.894531 783.351562 C 1431.347656 794.511719 1430.527344 805.65625 1429.429688 816.777344 C 1428.335938 827.898438 1426.96875 838.988281 1425.328125 850.042969 C 1423.6875 861.097656 1421.777344 872.105469 1419.597656 883.066406 C 1417.417969 894.027344 1414.96875 904.929688 1412.253906 915.769531 C 1409.539062 926.609375 1406.558594 937.378906 1403.3125 948.070312 C 1400.070312 958.765625 1396.566406 969.375 1392.800781 979.898438 C 1389.035156 990.417969 1385.015625 1000.84375 1380.738281 1011.167969 C 1376.460938 1021.492188 1371.933594 1031.707031 1367.15625 1041.808594 C 1362.378906 1051.914062 1357.355469 1061.890625 1352.085938 1071.75 C 1346.816406 1081.605469 1341.308594 1091.324219 1335.566406 1100.910156 C 1329.820312 1110.496094 1323.84375 1119.9375 1317.632812 1129.226562 C 1311.425781 1138.519531 1304.992188 1147.65625 1298.332031 1156.632812 C 1291.675781 1165.609375 1284.804688 1174.414062 1277.714844 1183.054688 C 1270.625 1191.695312 1263.324219 1200.152344 1255.820312 1208.433594 C 1248.316406 1216.714844 1240.613281 1224.804688 1232.710938 1232.710938 C 1224.808594 1240.613281 1216.714844 1248.316406 1208.433594 1255.820312 C 1200.152344 1263.324219 1191.695312 1270.625 1183.054688 1277.714844 C 1174.414062 1284.804688 1165.609375 1291.675781 1156.632812 1298.332031 C 1147.65625 1304.992188 1138.519531 1311.425781 1129.226562 1317.632812 C 1119.9375 1323.84375 1110.496094 1329.820312 1100.910156 1335.566406 C 1091.324219 1341.308594 1081.605469 1346.816406 1071.75 1352.085938 C 1061.890625 1357.355469 1051.914062 1362.375 1041.808594 1367.15625 C 1031.707031 1371.933594 1021.492188 1376.460938 1011.167969 1380.738281 C 1000.84375 1385.015625 990.417969 1389.035156 979.898438 1392.800781 C 969.375 1396.566406 958.765625 1400.070312 948.070312 1403.3125 C 937.378906 1406.558594 926.609375 1409.539062 915.769531 1412.253906 C 904.929688 1414.96875 894.027344 1417.417969 883.066406 1419.597656 C 872.105469 1421.777344 861.097656 1423.6875 850.042969 1425.328125 C 838.988281 1426.96875 827.898438 1428.335938 816.777344 1429.429688 C 805.65625 1430.527344 794.511719 1431.347656 783.351562 1431.894531 C 772.1875 1432.445312 761.019531 1432.71875 749.84375 1432.71875 C 738.667969 1432.71875 727.5 1432.445312 716.335938 1431.894531 C 705.175781 1431.347656 694.03125 1430.527344 682.910156 1429.429688 C 671.789062 1428.335938 660.699219 1426.96875 649.644531 1425.328125 C 638.589844 1423.6875 627.582031 1421.777344 616.621094 1419.597656 C 605.660156 1417.417969 594.757812 1414.96875 583.917969 1412.253906 C 573.078125 1409.539062 562.308594 1406.558594 551.617188 1403.3125 C 540.921875 1400.070312 530.3125 1396.566406 519.789062 1392.800781 C 509.265625 1389.035156 498.84375 1385.015625 488.519531 1380.738281 C 478.195312 1376.460938 467.980469 1371.933594 457.878906 1367.15625 C 447.773438 1362.375 437.792969 1357.355469 427.9375 1352.085938 C 418.082031 1346.816406 408.363281 1341.308594 398.777344 1335.566406 C 389.191406 1329.820312 379.75 1323.84375 370.457031 1317.632812 C 361.167969 1311.425781 352.03125 1304.992188 343.054688 1298.332031 C 334.078125 1291.675781 325.269531 1284.804688 316.632812 1277.714844 C 307.992188 1270.625 299.535156 1263.324219 291.253906 1255.820312 C 282.972656 1248.316406 274.878906 1240.613281 266.976562 1232.710938 C 259.074219 1224.804688 251.371094 1216.714844 243.867188 1208.433594 C 236.363281 1200.152344 229.0625 1191.695312 221.972656 1183.054688 C 214.882812 1174.414062 208.011719 1165.609375 201.351562 1156.632812 C 194.695312 1147.65625 188.261719 1138.519531 182.054688 1129.226562 C 175.84375 1119.9375 169.867188 1110.496094 164.121094 1100.910156 C 158.375 1091.324219 152.871094 1081.605469 147.601562 1071.75 C 142.332031 1061.890625 137.308594 1051.914062 132.53125 1041.808594 C 127.753906 1031.707031 123.226562 1021.492188 118.949219 1011.167969 C 114.671875 1000.84375 110.652344 990.417969 106.886719 979.898438 C 103.121094 969.375 99.617188 958.765625 96.375 948.070312 C 93.128906 937.378906 90.148438 926.609375 87.433594 915.769531 C 84.71875 904.929688 82.269531 894.027344 80.089844 883.066406 C 77.910156 872.105469 76 861.097656 74.359375 850.042969 C 72.71875 838.988281 71.351562 827.898438 70.257812 816.777344 C 69.160156 805.65625 68.339844 794.511719 67.792969 783.351562 C 67.242188 772.1875 66.96875 761.019531 66.96875 749.84375 C 66.96875 738.667969 67.242188 727.5 67.792969 716.335938 C 68.339844 705.175781 69.160156 694.03125 70.257812 682.910156 C 71.351562 671.789062 72.71875 660.699219 74.359375 649.644531 C 76 638.589844 77.910156 627.582031 80.089844 616.621094 C 82.269531 605.660156 84.71875 594.757812 87.433594 583.917969 C 90.148438 573.078125 93.128906 562.308594 96.375 551.617188 C 99.617188 540.921875 103.121094 530.3125 106.886719 519.789062 C 110.652344 509.265625 114.671875 498.84375 118.949219 488.519531 C 123.226562 478.195312 127.753906 467.980469 132.53125 457.875 C 137.308594 447.773438 142.332031 437.792969 147.601562 427.9375 C 152.871094 418.082031 158.375 408.363281 164.121094 398.777344 C 169.867188 389.191406 175.84375 379.75 182.054688 370.457031 C 188.261719 361.167969 194.695312 352.03125 201.351562 343.054688 C 208.011719 334.078125 214.882812 325.269531 221.972656 316.632812 C 229.0625 307.992188 236.363281 299.535156 243.867188 291.253906 C 251.371094 282.972656 259.074219 274.878906 266.976562 266.976562 C 274.878906 259.074219 282.972656 251.371094 291.253906 243.867188 C 299.535156 236.363281 307.992188 229.0625 316.632812 221.972656 C 325.269531 214.882812 334.078125 208.011719 343.054688 201.351562 C 352.03125 194.695312 361.167969 188.261719 370.457031 182.054688 C 379.75 175.84375 389.191406 169.867188 398.777344 164.121094 C 408.363281 158.375 418.082031 152.871094 427.9375 147.601562 C 437.792969 142.332031 447.773438 137.308594 457.878906 132.53125 C 467.980469 127.753906 478.195312 123.226562 488.519531 118.949219 C 498.84375 114.671875 509.265625 110.652344 519.789062 106.886719 C 530.3125 103.121094 540.921875 99.617188 551.617188 96.371094 C 562.308594 93.128906 573.078125 90.148438 583.917969 87.433594 C 594.757812 84.71875 605.660156 82.269531 616.621094 80.089844 C 627.582031 77.910156 638.589844 76 649.644531 74.359375 C 660.699219 72.71875 671.789062 71.351562 682.910156 70.257812 C 694.03125 69.160156 705.175781 68.339844 716.335938 67.792969 C 727.5 67.242188 738.667969 66.96875 749.84375 66.96875 C 761.019531 66.96875 772.1875 67.242188 783.351562 67.792969 C 794.511719 68.339844 805.65625 69.160156 816.777344 70.257812 C 827.898438 71.351562 838.988281 72.71875 850.042969 74.359375 C 861.097656 76 872.105469 77.910156 883.066406 80.089844 C 894.027344 82.269531 904.929688 84.71875 915.769531 87.433594 C 926.609375 90.148438 937.378906 93.128906 948.070312 96.371094 C 958.765625 99.617188 969.375 103.121094 979.898438 106.886719 C 990.417969 110.652344 1000.84375 114.671875 1011.167969 118.949219 C 1021.492188 123.226562 1031.707031 127.753906 1041.808594 132.53125 C 1051.914062 137.308594 1061.890625 142.332031 1071.75 147.601562 C 1081.605469 152.871094 1091.324219 158.375 1100.910156 164.121094 C 1110.496094 169.867188 1119.9375 175.84375 1129.230469 182.054688 C 1138.519531 188.261719 1147.65625 194.695312 1156.632812 201.351562 C 1165.609375 208.011719 1174.414062 214.882812 1183.054688 221.972656 C 1191.695312 229.0625 1200.152344 236.363281 1208.433594 243.867188 C 1216.714844 251.371094 1224.808594 259.074219 1232.710938 266.976562 C 1240.613281 274.878906 1248.316406 282.972656 1255.820312 291.253906 C 1263.324219 299.535156 1270.625 307.992188 1277.714844 316.632812 C 1284.804688 325.269531 1291.675781 334.078125 1298.332031 343.054688 C 1304.992188 352.03125 1311.425781 361.167969 1317.632812 370.457031 C 1323.84375 379.75 1329.820312 389.191406 1335.566406 398.777344 C 1341.308594 408.363281 1346.816406 418.082031 1352.085938 427.9375 C 1357.355469 437.792969 1362.378906 447.773438 1367.15625 457.875 C 1371.933594 467.980469 1376.460938 478.195312 1380.738281 488.519531 C 1385.015625 498.84375 1389.035156 509.265625 1392.800781 519.789062 C 1396.566406 530.3125 1400.070312 540.921875 1403.3125 551.617188 C 1406.558594 562.308594 1409.539062 573.078125 1412.253906 583.917969 C 1414.96875 594.757812 1417.417969 605.660156 1419.597656 616.621094 C 1421.777344 627.582031 1423.6875 638.589844 1425.328125 649.644531 C 1426.96875 660.699219 1428.335938 671.789062 1429.429688 682.910156 C 1430.527344 694.03125 1431.347656 705.175781 1431.894531 716.335938 C 1432.445312 727.5 1432.71875 738.667969 1432.71875 749.84375 Z M 1432.71875 749.84375 " clip-rule="nonzero"/></clipPath><linearGradient x1="0.0499109" gradientTransform="matrix(4.448697, 0, 0, 4.448697, 66.968719, 66.968727)" y1="307.049882" x2="307.050602" gradientUnits="userSpaceOnUse" y2="0.0506035" id="9b553cbb82"><stop stop-opacity="1" stop-color="rgb(99.598694%, 75.299072%, 32.499695%)" offset="0"/><stop stop-opacity="1" stop-color="rgb(99.598694%, 75.299072%, 32.499695%)" offset="0.125"/><stop stop-opacity="1" stop-color="rgb(99.598694%, 75.299072%, 32.499695%)" offset="0.140625"/><stop stop-opacity="1" stop-color="rgb(99.583435%, 75.102234%, 32.473755%)" offset="0.144531"/><stop stop-opacity="1" stop-color="rgb(99.569702%, 74.906921%, 32.447815%)" offset="0.148438"/><stop stop-opacity="1" stop-color="rgb(99.514771%, 74.171448%, 32.351685%)" offset="0.152344"/><stop stop-opacity="1" stop-color="rgb(99.459839%, 73.435974%, 32.255554%)" offset="0.15625"/><stop stop-opacity="1" stop-color="rgb(99.404907%, 72.7005%, 32.159424%)" offset="0.160156"/><stop stop-opacity="1" stop-color="rgb(99.349976%, 71.965027%, 32.063293%)" offset="0.164062"/><stop stop-opacity="1" stop-color="rgb(99.295044%, 71.229553%, 31.967163%)" offset="0.167969"/><stop stop-opacity="1" stop-color="rgb(99.240112%, 70.49408%, 31.872559%)" offset="0.171875"/><stop stop-opacity="1" stop-color="rgb(99.185181%, 69.758606%, 31.776428%)" offset="0.175781"/><stop stop-opacity="1" stop-color="rgb(99.130249%, 69.023132%, 31.680298%)" offset="0.179687"/><stop stop-opacity="1" stop-color="rgb(99.073792%, 68.287659%, 31.584167%)" offset="0.183594"/><stop stop-opacity="1" stop-color="rgb(99.01886%, 67.552185%, 31.488037%)" offset="0.1875"/><stop stop-opacity="1" stop-color="rgb(98.963928%, 66.816711%, 31.391907%)" offset="0.191406"/><stop stop-opacity="1" stop-color="rgb(98.908997%, 66.081238%, 31.295776%)" offset="0.195312"/><stop stop-opacity="1" stop-color="rgb(98.854065%, 65.345764%, 31.199646%)" offset="0.199219"/><stop stop-opacity="1" stop-color="rgb(98.799133%, 64.611816%, 31.103516%)" offset="0.203125"/><stop stop-opacity="1" stop-color="rgb(98.744202%, 63.876343%, 31.007385%)" offset="0.207031"/><stop stop-opacity="1" stop-color="rgb(98.68927%, 63.140869%, 30.911255%)" offset="0.210938"/><stop stop-opacity="1" stop-color="rgb(98.634338%, 62.405396%, 30.815125%)" offset="0.214844"/><stop stop-opacity="1" stop-color="rgb(98.579407%, 61.669922%, 30.718994%)" offset="0.21875"/><stop stop-opacity="1" stop-color="rgb(98.524475%, 60.934448%, 30.622864%)" offset="0.222656"/><stop stop-opacity="1" stop-color="rgb(98.469543%, 60.198975%, 30.528259%)" offset="0.226562"/><stop stop-opacity="1" stop-color="rgb(98.414612%, 59.463501%, 30.432129%)" offset="0.230469"/><stop stop-opacity="1" stop-color="rgb(98.35968%, 58.728027%, 30.335999%)" offset="0.234375"/><stop stop-opacity="1" stop-color="rgb(98.303223%, 57.992554%, 30.239868%)" offset="0.238281"/><stop stop-opacity="1" stop-color="rgb(98.248291%, 57.25708%, 30.143738%)" offset="0.242187"/><stop stop-opacity="1" stop-color="rgb(98.193359%, 56.521606%, 30.047607%)" offset="0.246094"/><stop stop-opacity="1" stop-color="rgb(98.138428%, 55.786133%, 29.951477%)" offset="0.25"/><stop stop-opacity="1" stop-color="rgb(98.083496%, 55.050659%, 29.855347%)" offset="0.253906"/><stop stop-opacity="1" stop-color="rgb(98.028564%, 54.315186%, 29.759216%)" offset="0.257812"/><stop stop-opacity="1" stop-color="rgb(97.973633%, 53.579712%, 29.663086%)" offset="0.261719"/><stop stop-opacity="1" stop-color="rgb(97.918701%, 52.845764%, 29.566956%)" offset="0.265625"/><stop stop-opacity="1" stop-color="rgb(97.86377%, 52.110291%, 29.470825%)" offset="0.269531"/><stop stop-opacity="1" stop-color="rgb(97.808838%, 51.374817%, 29.374695%)" offset="0.273437"/><stop stop-opacity="1" stop-color="rgb(97.753906%, 50.639343%, 29.278564%)" offset="0.277344"/><stop stop-opacity="1" stop-color="rgb(97.698975%, 49.90387%, 29.18396%)" offset="0.28125"/><stop stop-opacity="1" stop-color="rgb(97.644043%, 49.168396%, 29.08783%)" offset="0.285156"/><stop stop-opacity="1" stop-color="rgb(97.589111%, 48.432922%, 28.991699%)" offset="0.289062"/><stop stop-opacity="1" stop-color="rgb(97.532654%, 47.697449%, 28.895569%)" offset="0.292969"/><stop stop-opacity="1" stop-color="rgb(97.477722%, 46.961975%, 28.799438%)" offset="0.296875"/><stop stop-opacity="1" stop-color="rgb(97.422791%, 46.226501%, 28.703308%)" offset="0.300781"/><stop stop-opacity="1" stop-color="rgb(97.367859%, 45.491028%, 28.607178%)" offset="0.304688"/><stop stop-opacity="1" stop-color="rgb(97.312927%, 44.755554%, 28.511047%)" offset="0.308594"/><stop stop-opacity="1" stop-color="rgb(97.257996%, 44.020081%, 28.414917%)" offset="0.3125"/><stop stop-opacity="1" stop-color="rgb(97.203064%, 43.284607%, 28.318787%)" offset="0.316406"/><stop stop-opacity="1" stop-color="rgb(97.148132%, 42.549133%, 28.222656%)" offset="0.320312"/><stop stop-opacity="1" stop-color="rgb(97.093201%, 41.81366%, 28.126526%)" offset="0.324219"/><stop stop-opacity="1" stop-color="rgb(97.038269%, 41.079712%, 28.030396%)" offset="0.328125"/><stop stop-opacity="1" stop-color="rgb(96.983337%, 40.344238%, 27.934265%)" offset="0.332031"/><stop stop-opacity="1" stop-color="rgb(96.928406%, 39.608765%, 27.839661%)" offset="0.335938"/><stop stop-opacity="1" stop-color="rgb(96.873474%, 38.873291%, 27.74353%)" offset="0.339844"/><stop stop-opacity="1" stop-color="rgb(96.818542%, 38.137817%, 27.6474%)" offset="0.34375"/><stop stop-opacity="1" stop-color="rgb(96.763611%, 37.402344%, 27.55127%)" offset="0.347656"/><stop stop-opacity="1" stop-color="rgb(96.708679%, 36.66687%, 27.455139%)" offset="0.351562"/><stop stop-opacity="1" stop-color="rgb(96.652222%, 35.931396%, 27.359009%)" offset="0.355469"/><stop stop-opacity="1" stop-color="rgb(96.59729%, 35.195923%, 27.262878%)" offset="0.359375"/><stop stop-opacity="1" stop-color="rgb(96.542358%, 34.460449%, 27.166748%)" offset="0.363281"/><stop stop-opacity="1" stop-color="rgb(96.487427%, 33.724976%, 27.070618%)" offset="0.367188"/><stop stop-opacity="1" stop-color="rgb(96.432495%, 32.989502%, 26.974487%)" offset="0.371094"/><stop stop-opacity="1" stop-color="rgb(96.377563%, 32.254028%, 26.878357%)" offset="0.375"/><stop stop-opacity="1" stop-color="rgb(96.322632%, 31.518555%, 26.782227%)" offset="0.378906"/><stop stop-opacity="1" stop-color="rgb(96.2677%, 30.783081%, 26.686096%)" offset="0.382812"/><stop stop-opacity="1" stop-color="rgb(96.212769%, 30.047607%, 26.589966%)" offset="0.386719"/><stop stop-opacity="1" stop-color="rgb(96.157837%, 29.312134%, 26.495361%)" offset="0.390625"/><stop stop-opacity="1" stop-color="rgb(96.102905%, 28.57666%, 26.399231%)" offset="0.394531"/><stop stop-opacity="1" stop-color="rgb(96.047974%, 27.842712%, 26.303101%)" offset="0.398438"/><stop stop-opacity="1" stop-color="rgb(95.993042%, 27.107239%, 26.20697%)" offset="0.402344"/><stop stop-opacity="1" stop-color="rgb(95.93811%, 26.371765%, 26.11084%)" offset="0.40625"/><stop stop-opacity="1" stop-color="rgb(95.881653%, 25.636292%, 26.014709%)" offset="0.410156"/><stop stop-opacity="1" stop-color="rgb(95.826721%, 24.900818%, 25.918579%)" offset="0.414062"/><stop stop-opacity="1" stop-color="rgb(95.77179%, 24.165344%, 25.822449%)" offset="0.417969"/><stop stop-opacity="1" stop-color="rgb(95.716858%, 23.429871%, 25.726318%)" offset="0.421875"/><stop stop-opacity="1" stop-color="rgb(95.661926%, 22.694397%, 25.630188%)" offset="0.425781"/><stop stop-opacity="1" stop-color="rgb(95.606995%, 21.958923%, 25.534058%)" offset="0.429688"/><stop stop-opacity="1" stop-color="rgb(95.552063%, 21.22345%, 25.437927%)" offset="0.433594"/><stop stop-opacity="1" stop-color="rgb(95.497131%, 20.487976%, 25.341797%)" offset="0.4375"/><stop stop-opacity="1" stop-color="rgb(95.4422%, 19.752502%, 25.245667%)" offset="0.441406"/><stop stop-opacity="1" stop-color="rgb(95.387268%, 19.017029%, 25.151062%)" offset="0.445312"/><stop stop-opacity="1" stop-color="rgb(95.332336%, 18.281555%, 25.054932%)" offset="0.449219"/><stop stop-opacity="1" stop-color="rgb(95.277405%, 17.546082%, 24.958801%)" offset="0.453125"/><stop stop-opacity="1" stop-color="rgb(95.222473%, 16.810608%, 24.862671%)" offset="0.457031"/><stop stop-opacity="1" stop-color="rgb(95.167542%, 16.07666%, 24.766541%)" offset="0.460938"/><stop stop-opacity="1" stop-color="rgb(95.111084%, 15.341187%, 24.67041%)" offset="0.464844"/><stop stop-opacity="1" stop-color="rgb(95.056152%, 14.605713%, 24.57428%)" offset="0.46875"/><stop stop-opacity="1" stop-color="rgb(95.001221%, 13.870239%, 24.478149%)" offset="0.472656"/><stop stop-opacity="1" stop-color="rgb(94.946289%, 13.134766%, 24.382019%)" offset="0.476562"/><stop stop-opacity="1" stop-color="rgb(94.621277%, 12.812805%, 24.882507%)" offset="0.480469"/><stop stop-opacity="1" stop-color="rgb(94.297791%, 12.490845%, 25.382996%)" offset="0.484375"/><stop stop-opacity="1" stop-color="rgb(93.766785%, 12.483215%, 26.33667%)" offset="0.488281"/><stop stop-opacity="1" stop-color="rgb(93.237305%, 12.477112%, 27.29187%)" offset="0.492188"/><stop stop-opacity="1" stop-color="rgb(92.707825%, 12.469482%, 28.245544%)" offset="0.496094"/><stop stop-opacity="1" stop-color="rgb(92.178345%, 12.463379%, 29.199219%)" offset="0.5"/><stop stop-opacity="1" stop-color="rgb(91.648865%, 12.45575%, 30.152893%)" offset="0.503906"/><stop stop-opacity="1" stop-color="rgb(91.119385%, 12.449646%, 31.108093%)" offset="0.507812"/><stop stop-opacity="1" stop-color="rgb(90.588379%, 12.442017%, 32.061768%)" offset="0.511719"/><stop stop-opacity="1" stop-color="rgb(90.058899%, 12.435913%, 33.015442%)" offset="0.515625"/><stop stop-opacity="1" stop-color="rgb(89.529419%, 12.428284%, 33.969116%)" offset="0.519531"/><stop stop-opacity="1" stop-color="rgb(88.999939%, 12.42218%, 34.924316%)" offset="0.523438"/><stop stop-opacity="1" stop-color="rgb(88.468933%, 12.414551%, 35.877991%)" offset="0.527344"/><stop stop-opacity="1" stop-color="rgb(87.939453%, 12.408447%, 36.831665%)" offset="0.53125"/><stop stop-opacity="1" stop-color="rgb(87.409973%, 12.400818%, 37.785339%)" offset="0.535156"/><stop stop-opacity="1" stop-color="rgb(86.880493%, 12.394714%, 38.74054%)" offset="0.539063"/><stop stop-opacity="1" stop-color="rgb(86.351013%, 12.387085%, 39.694214%)" offset="0.542969"/><stop stop-opacity="1" stop-color="rgb(85.821533%, 12.380981%, 40.647888%)" offset="0.546875"/><stop stop-opacity="1" stop-color="rgb(85.290527%, 12.373352%, 41.601562%)" offset="0.550781"/><stop stop-opacity="1" stop-color="rgb(84.761047%, 12.367249%, 42.556763%)" offset="0.554688"/><stop stop-opacity="1" stop-color="rgb(84.231567%, 12.359619%, 43.510437%)" offset="0.558594"/><stop stop-opacity="1" stop-color="rgb(83.702087%, 12.353516%, 44.464111%)" offset="0.5625"/><stop stop-opacity="1" stop-color="rgb(83.171082%, 12.345886%, 45.417786%)" offset="0.566406"/><stop stop-opacity="1" stop-color="rgb(82.641602%, 12.339783%, 46.372986%)" offset="0.570312"/><stop stop-opacity="1" stop-color="rgb(82.112122%, 12.332153%, 47.32666%)" offset="0.574219"/><stop stop-opacity="1" stop-color="rgb(81.582642%, 12.32605%, 48.280334%)" offset="0.578125"/><stop stop-opacity="1" stop-color="rgb(81.053162%, 12.31842%, 49.234009%)" offset="0.582031"/><stop stop-opacity="1" stop-color="rgb(80.523682%, 12.312317%, 50.189209%)" offset="0.585938"/><stop stop-opacity="1" stop-color="rgb(79.992676%, 12.304688%, 51.142883%)" offset="0.589844"/><stop stop-opacity="1" stop-color="rgb(79.463196%, 12.298584%, 52.096558%)" offset="0.59375"/><stop stop-opacity="1" stop-color="rgb(78.933716%, 12.290955%, 53.050232%)" offset="0.597656"/><stop stop-opacity="1" stop-color="rgb(78.404236%, 12.284851%, 54.005432%)" offset="0.601562"/><stop stop-opacity="1" stop-color="rgb(77.874756%, 12.277222%, 54.959106%)" offset="0.605469"/><stop stop-opacity="1" stop-color="rgb(77.345276%, 12.271118%, 55.912781%)" offset="0.609375"/><stop stop-opacity="1" stop-color="rgb(76.81427%, 12.263489%, 56.866455%)" offset="0.613281"/><stop stop-opacity="1" stop-color="rgb(76.28479%, 12.257385%, 57.821655%)" offset="0.617187"/><stop stop-opacity="1" stop-color="rgb(75.75531%, 12.249756%, 58.77533%)" offset="0.621094"/><stop stop-opacity="1" stop-color="rgb(75.22583%, 12.243652%, 59.729004%)" offset="0.625"/><stop stop-opacity="1" stop-color="rgb(74.694824%, 12.236023%, 60.682678%)" offset="0.628906"/><stop stop-opacity="1" stop-color="rgb(74.165344%, 12.229919%, 61.637878%)" offset="0.632813"/><stop stop-opacity="1" stop-color="rgb(73.635864%, 12.22229%, 62.591553%)" offset="0.636719"/><stop stop-opacity="1" stop-color="rgb(73.106384%, 12.216187%, 63.545227%)" offset="0.640625"/><stop stop-opacity="1" stop-color="rgb(72.576904%, 12.208557%, 64.498901%)" offset="0.644531"/><stop stop-opacity="1" stop-color="rgb(72.047424%, 12.202454%, 65.454102%)" offset="0.648438"/><stop stop-opacity="1" stop-color="rgb(71.342468%, 12.489319%, 65.942383%)" offset="0.652344"/><stop stop-opacity="1" stop-color="rgb(70.639038%, 12.77771%, 66.430664%)" offset="0.65625"/><stop stop-opacity="1" stop-color="rgb(69.882202%, 13.154602%, 66.777039%)" offset="0.660156"/><stop stop-opacity="1" stop-color="rgb(69.125366%, 13.53302%, 67.123413%)" offset="0.664062"/><stop stop-opacity="1" stop-color="rgb(68.36853%, 13.909912%, 67.469788%)" offset="0.667969"/><stop stop-opacity="1" stop-color="rgb(67.611694%, 14.28833%, 67.817688%)" offset="0.671875"/><stop stop-opacity="1" stop-color="rgb(66.854858%, 14.665222%, 68.164062%)" offset="0.675781"/><stop stop-opacity="1" stop-color="rgb(66.098022%, 15.042114%, 68.510437%)" offset="0.679688"/><stop stop-opacity="1" stop-color="rgb(65.341187%, 15.419006%, 68.856812%)" offset="0.683594"/><stop stop-opacity="1" stop-color="rgb(64.584351%, 15.797424%, 69.203186%)" offset="0.6875"/><stop stop-opacity="1" stop-color="rgb(63.827515%, 16.174316%, 69.549561%)" offset="0.691406"/><stop stop-opacity="1" stop-color="rgb(63.070679%, 16.552734%, 69.897461%)" offset="0.695312"/><stop stop-opacity="1" stop-color="rgb(62.313843%, 16.929626%, 70.243835%)" offset="0.699219"/><stop stop-opacity="1" stop-color="rgb(61.557007%, 17.308044%, 70.59021%)" offset="0.703125"/><stop stop-opacity="1" stop-color="rgb(60.800171%, 17.684937%, 70.936584%)" offset="0.707031"/><stop stop-opacity="1" stop-color="rgb(60.043335%, 18.061829%, 71.282959%)" offset="0.710937"/><stop stop-opacity="1" stop-color="rgb(59.286499%, 18.438721%, 71.629333%)" offset="0.714844"/><stop stop-opacity="1" stop-color="rgb(58.529663%, 18.817139%, 71.977234%)" offset="0.71875"/><stop stop-opacity="1" stop-color="rgb(57.772827%, 19.194031%, 72.323608%)" offset="0.722656"/><stop stop-opacity="1" stop-color="rgb(57.015991%, 19.572449%, 72.669983%)" offset="0.726562"/><stop stop-opacity="1" stop-color="rgb(56.259155%, 19.949341%, 73.016357%)" offset="0.730469"/><stop stop-opacity="1" stop-color="rgb(55.502319%, 20.326233%, 73.362732%)" offset="0.734375"/><stop stop-opacity="1" stop-color="rgb(54.745483%, 20.703125%, 73.709106%)" offset="0.738281"/><stop stop-opacity="1" stop-color="rgb(53.988647%, 21.081543%, 74.057007%)" offset="0.742188"/><stop stop-opacity="1" stop-color="rgb(53.231812%, 21.458435%, 74.403381%)" offset="0.746094"/><stop stop-opacity="1" stop-color="rgb(52.474976%, 21.836853%, 74.749756%)" offset="0.75"/><stop stop-opacity="1" stop-color="rgb(51.71814%, 22.213745%, 75.09613%)" offset="0.753906"/><stop stop-opacity="1" stop-color="rgb(50.961304%, 22.592163%, 75.444031%)" offset="0.757812"/><stop stop-opacity="1" stop-color="rgb(50.204468%, 22.969055%, 75.790405%)" offset="0.761719"/><stop stop-opacity="1" stop-color="rgb(49.447632%, 23.345947%, 76.13678%)" offset="0.765625"/><stop stop-opacity="1" stop-color="rgb(48.690796%, 23.722839%, 76.483154%)" offset="0.769531"/><stop stop-opacity="1" stop-color="rgb(47.93396%, 24.101257%, 76.829529%)" offset="0.773438"/><stop stop-opacity="1" stop-color="rgb(47.177124%, 24.478149%, 77.175903%)" offset="0.777344"/><stop stop-opacity="1" stop-color="rgb(46.420288%, 24.856567%, 77.523804%)" offset="0.78125"/><stop stop-opacity="1" stop-color="rgb(45.663452%, 25.233459%, 77.870178%)" offset="0.785156"/><stop stop-opacity="1" stop-color="rgb(44.906616%, 25.611877%, 78.216553%)" offset="0.789063"/><stop stop-opacity="1" stop-color="rgb(44.14978%, 25.98877%, 78.562927%)" offset="0.792969"/><stop stop-opacity="1" stop-color="rgb(43.392944%, 26.365662%, 78.909302%)" offset="0.796875"/><stop stop-opacity="1" stop-color="rgb(42.636108%, 26.742554%, 79.255676%)" offset="0.800781"/><stop stop-opacity="1" stop-color="rgb(41.879272%, 27.120972%, 79.603577%)" offset="0.804688"/><stop stop-opacity="1" stop-color="rgb(41.122437%, 27.497864%, 79.949951%)" offset="0.808594"/><stop stop-opacity="1" stop-color="rgb(40.365601%, 27.876282%, 80.296326%)" offset="0.8125"/><stop stop-opacity="1" stop-color="rgb(39.608765%, 28.253174%, 80.6427%)" offset="0.816406"/><stop stop-opacity="1" stop-color="rgb(38.851929%, 28.631592%, 80.989075%)" offset="0.820312"/><stop stop-opacity="1" stop-color="rgb(38.095093%, 29.008484%, 81.335449%)" offset="0.824219"/><stop stop-opacity="1" stop-color="rgb(37.338257%, 29.385376%, 81.68335%)" offset="0.828125"/><stop stop-opacity="1" stop-color="rgb(36.581421%, 29.762268%, 82.029724%)" offset="0.832031"/><stop stop-opacity="1" stop-color="rgb(35.824585%, 30.140686%, 82.376099%)" offset="0.835938"/><stop stop-opacity="1" stop-color="rgb(35.067749%, 30.517578%, 82.722473%)" offset="0.839844"/><stop stop-opacity="1" stop-color="rgb(34.310913%, 30.895996%, 83.068848%)" offset="0.84375"/><stop stop-opacity="1" stop-color="rgb(33.554077%, 31.272888%, 83.415222%)" offset="0.847656"/><stop stop-opacity="1" stop-color="rgb(32.797241%, 31.651306%, 83.763123%)" offset="0.851563"/><stop stop-opacity="1" stop-color="rgb(32.647705%, 31.724548%, 83.830261%)" offset="0.859375"/><stop stop-opacity="1" stop-color="rgb(32.499695%, 31.799316%, 83.898926%)" offset="0.875"/><stop stop-opacity="1" stop-color="rgb(32.499695%, 31.799316%, 83.898926%)" offset="1"/></linearGradient></defs><g clip-path="url(#db4be6ba88)"><g clip-path="url(#eb686453aa)"><path fill="url(#9b553cbb82)" d="M 66.96875 66.96875 L 66.96875 1432.71875 L 1432.71875 1432.71875 L 1432.71875 66.96875 Z M 66.96875 66.96875 " fill-rule="nonzero"/></g></g><path fill="#ffffff" d="M 933.0625 1161.960938 L 569.007812 1161.960938 C 442.792969 1161.960938 340.113281 1059.28125 340.113281 933.0625 L 340.113281 569.007812 C 340.113281 442.792969 442.792969 340.113281 569.007812 340.113281 L 933.0625 340.113281 C 1059.28125 340.113281 1161.960938 442.792969 1161.960938 569.007812 L 1161.960938 933.0625 C 1161.960938 1059.28125 1059.28125 1161.960938 933.0625 1161.960938 Z M 569.007812 395.75 C 473.476562 395.75 395.75 473.476562 395.75 569.007812 L 395.75 933.0625 C 395.75 1028.59375 473.476562 1106.320312 569.007812 1106.320312 L 933.0625 1106.320312 C 1028.59375 1106.320312 1106.320312 1028.59375 1106.320312 933.0625 L 1106.320312 569.007812 C 1106.320312 473.476562 1028.59375 395.75 933.0625 395.75 Z M 569.007812 395.75 " fill-opacity="1" fill-rule="nonzero"/><path fill="#ffffff" d="M 751.050781 954.605469 C 638.8125 954.605469 547.5 863.289062 547.5 751.050781 C 547.5 638.8125 638.8125 547.5 751.050781 547.5 C 863.289062 547.5 954.605469 638.8125 954.605469 751.050781 C 954.605469 863.289062 863.289062 954.605469 751.050781 954.605469 Z M 751.050781 603.121094 C 669.488281 603.121094 603.132812 669.46875 603.132812 751.035156 C 603.132812 832.601562 669.5 898.949219 751.050781 898.949219 C 832.601562 898.949219 898.964844 832.601562 898.964844 751.035156 C 898.964844 669.46875 832.617188 603.121094 751.050781 603.121094 Z M 751.050781 603.121094 " fill-opacity="1" fill-rule="nonzero"/></svg>