<svg xmlns="http://www.w3.org/2000/svg" xmlns:xlink="http://www.w3.org/1999/xlink" width="2000" zoomAndPan="magnify" viewBox="0 0 1500 1499.999933" height="2000" preserveAspectRatio="xMidYMid meet" version="1.0"><defs><clipPath id="03944f7976"><path d="M 81.796875 81.796875 L 704 81.796875 L 704 704 L 81.796875 704 Z M 81.796875 81.796875 " clip-rule="nonzero"/></clipPath><clipPath id="442b7254fe"><path d="M 81.796875 747 L 704 747 L 704 1418.296875 L 81.796875 1418.296875 Z M 81.796875 747 " clip-rule="nonzero"/></clipPath><clipPath id="7ab110c49d"><path d="M 703 81.796875 L 1418.296875 81.796875 L 1418.296875 1418.296875 L 703 1418.296875 Z M 703 81.796875 " clip-rule="nonzero"/></clipPath></defs><g clip-path="url(#03944f7976)"><path fill="#ffffff" d="M 665.480469 520.15625 C 665.480469 599.863281 599.578125 665.492188 519.804688 665.492188 L 264.9375 665.492188 C 185.167969 665.492188 119.621094 599.914062 119.621094 520.15625 L 119.621094 265.269531 C 119.621094 185.566406 185.167969 119.621094 264.9375 119.621094 L 519.804688 119.621094 C 599.578125 119.621094 665.480469 185.511719 665.480469 265.269531 Z M 519.804688 81.796875 L 264.9375 81.796875 C 163.953125 81.796875 81.796875 164.089844 81.796875 265.289062 L 81.796875 520.15625 C 81.796875 621.160156 163.953125 703.308594 264.9375 703.308594 L 519.804688 703.308594 C 620.984375 703.308594 703.296875 621.160156 703.296875 520.15625 L 703.296875 265.289062 C 703.296875 164.089844 620.984375 81.796875 519.804688 81.796875 " fill-opacity="1" fill-rule="nonzero"/></g><path fill="#ffffff" d="M 519.804688 216.636719 L 264.9375 216.636719 C 237.214844 216.636719 216.273438 237.589844 216.273438 265.320312 L 216.273438 520.210938 C 216.273438 547.929688 237.257812 568.539062 264.9375 568.539062 L 519.804688 568.539062 C 547.492188 568.539062 568.507812 547.886719 568.507812 520.210938 L 568.507812 265.320312 C 568.507812 237.644531 547.492188 216.636719 519.804688 216.636719 " fill-opacity="1" fill-rule="nonzero"/><path fill="#ffffff" d="M 519.804688 882.761719 L 264.9375 882.761719 C 237.214844 882.761719 216.273438 903.433594 216.273438 931.113281 L 216.273438 1235 C 216.273438 1262.738281 237.257812 1283.351562 264.9375 1283.351562 L 519.804688 1283.351562 C 547.492188 1283.351562 568.507812 1262.738281 568.507812 1235 L 568.507812 931.113281 C 568.507812 903.433594 547.492188 882.761719 519.804688 882.761719 " fill-opacity="1" fill-rule="nonzero"/><g clip-path="url(#442b7254fe)"><path fill="#ffffff" d="M 665.480469 1235 C 665.480469 1314.777344 599.578125 1380.375 519.804688 1380.375 L 264.9375 1380.375 C 185.167969 1380.375 119.621094 1314.828125 119.621094 1235 L 119.621094 931.113281 C 119.621094 851.398438 185.167969 785.777344 264.9375 785.777344 L 519.804688 785.777344 C 599.578125 785.777344 665.480469 851.335938 665.480469 931.113281 Z M 519.804688 747.953125 L 264.9375 747.953125 C 163.953125 747.953125 81.796875 830.132812 81.796875 931.113281 L 81.796875 1235 C 81.796875 1336.003906 163.953125 1418.203125 264.9375 1418.203125 L 519.804688 1418.203125 C 620.984375 1418.203125 703.296875 1336.003906 703.296875 1235 L 703.296875 931.113281 C 703.296875 830.132812 620.984375 747.953125 519.804688 747.953125 " fill-opacity="1" fill-rule="nonzero"/></g><path fill="#ffffff" d="M 1234.664062 930.433594 L 929.296875 930.433594 C 901.578125 930.433594 880.621094 951.378906 880.621094 979.121094 L 880.621094 1235 C 880.621094 1262.738281 901.617188 1283.351562 929.296875 1283.351562 L 1234.664062 1283.351562 C 1262.34375 1283.351562 1283.351562 1262.738281 1283.351562 1235 L 1283.351562 979.121094 C 1283.351562 951.421875 1262.34375 930.433594 1234.664062 930.433594 " fill-opacity="1" fill-rule="nonzero"/><g clip-path="url(#7ab110c49d)"><path fill="#ffffff" d="M 1380.363281 1235 C 1380.363281 1314.777344 1314.421875 1380.375 1234.664062 1380.375 L 929.296875 1380.375 C 849.539062 1380.375 783.597656 1314.828125 783.597656 1235 L 783.597656 979.121094 C 783.597656 899.363281 849.539062 833.398438 929.296875 833.398438 L 1234.664062 833.398438 C 1314.421875 833.398438 1380.363281 899.363281 1380.363281 979.121094 Z M 957.738281 715.429688 L 784.609375 542.324219 C 727.875 485.558594 727.875 391.988281 784.609375 335.253906 L 957.738281 162.148438 C 1014.472656 105.308594 1107.75 105.609375 1164.515625 162.34375 L 1337.621094 335.597656 C 1394.355469 392.332031 1394.355469 485.390625 1337.621094 542.125 L 1164.515625 715.230469 C 1107.75 771.925781 1014.472656 772.164062 957.738281 715.429688 Z M 1234.664062 795.582031 L 1062.9375 795.582031 C 1111.570312 795.0625 1157.070312 776.132812 1191.253906 741.96875 L 1364.359375 568.863281 C 1398.960938 534.292969 1417.992188 488.09375 1417.992188 438.847656 C 1417.992188 389.597656 1398.960938 343.449219 1364.378906 308.878906 L 1191.253906 135.574219 C 1156.578125 100.902344 1110.265625 81.847656 1060.890625 81.847656 C 1011.621094 81.847656 965.472656 100.859375 931 135.398438 L 757.871094 308.515625 C 686.039062 380.335938 686.039062 497.210938 757.871094 569.0625 L 931 742.167969 C 965.003906 776.183594 1010.390625 795.0625 1058.84375 795.582031 L 929.296875 795.582031 C 828.09375 795.582031 745.78125 877.898438 745.78125 979.097656 L 745.78125 1235 C 745.78125 1336.003906 828.09375 1418.203125 929.296875 1418.203125 L 1234.664062 1418.203125 C 1335.867188 1418.203125 1418.191406 1336.003906 1418.191406 1235 L 1418.191406 979.097656 C 1418.191406 877.898438 1335.867188 795.582031 1234.664062 795.582031 " fill-opacity="1" fill-rule="nonzero"/></g><path fill="#ffffff" d="M 1096.128906 646.773438 L 1269.234375 473.664062 C 1289.207031 453.671875 1288.957031 423.945312 1269.035156 404.003906 L 1095.929688 230.898438 L 1095.878906 230.898438 C 1075.9375 211.019531 1046.210938 210.78125 1026.25 230.722656 L 853.140625 403.828125 C 833.261719 423.75 833.261719 453.722656 853.140625 473.664062 L 1026.25 646.773438 C 1046.210938 666.691406 1076.1875 666.691406 1096.128906 646.773438 " fill-opacity="1" fill-rule="nonzero"/></svg>