<svg xmlns="http://www.w3.org/2000/svg" xmlns:xlink="http://www.w3.org/1999/xlink" width="2000" zoomAndPan="magnify" viewBox="0 0 1500 1499.999933" height="2000" preserveAspectRatio="xMidYMid meet" version="1.0"><defs><clipPath id="c99ffdcb3b"><path d="M 330.09375 60.214844 L 1046 60.214844 L 1046 1395 L 330.09375 1395 Z M 330.09375 60.214844 " clip-rule="nonzero"/></clipPath><clipPath id="bc20b566fb"><path d="M 455 105 L 1170 105 L 1170 1439.464844 L 455 1439.464844 Z M 455 105 " clip-rule="nonzero"/></clipPath><clipPath id="95b3f084d0"><path d="M 391 105 L 1106 105 L 1106 1439.464844 L 391 1439.464844 Z M 391 105 " clip-rule="nonzero"/></clipPath></defs><g clip-path="url(#c99ffdcb3b)"><path fill="#25f4ee" d="M 976.996094 1080.300781 C 957.269531 1100.214844 919.714844 1114.148438 881.527344 1114.148438 C 828.066406 1114.148438 787.964844 1068.40625 787.964844 1002.8125 L 787.964844 611.113281 L 1001.183594 611.113281 L 1001.183594 342.746094 L 787.964844 342.746094 L 787.964844 60.4375 L 465.910156 60.4375 L 465.910156 342.746094 L 330.976562 342.746094 L 330.976562 611.113281 L 465.910156 611.113281 L 465.910156 1064.398438 C 465.910156 1257.289062 601.476562 1394.449219 794.328125 1394.449219 C 881.527344 1394.449219 983.363281 1354.6875 1045.101562 1297.050781 Z M 976.996094 1080.300781 " fill-opacity="1" fill-rule="nonzero"/></g><g clip-path="url(#bc20b566fb)"><path fill="#fe2c55" d="M 1101.109375 1125.851562 C 1081.378906 1145.765625 1043.824219 1159.699219 1005.636719 1159.699219 C 952.179688 1159.699219 912.074219 1113.957031 912.074219 1048.363281 L 912.074219 656.664062 L 1125.292969 656.664062 L 1125.292969 388.296875 L 912.074219 388.296875 L 912.074219 105.988281 L 590.023438 105.988281 L 590.023438 388.296875 L 455.089844 388.296875 L 455.089844 656.664062 L 590.023438 656.664062 L 590.023438 1109.949219 C 590.023438 1302.839844 725.589844 1440 918.441406 1440 C 1005.636719 1440 1107.472656 1400.238281 1169.210938 1342.601562 Z M 1101.109375 1125.851562 " fill-opacity="1" fill-rule="nonzero"/></g><g clip-path="url(#95b3f084d0)"><path fill="#000000" d="M 1037.464844 1125.851562 C 1017.734375 1145.765625 980.179688 1159.699219 941.992188 1159.699219 C 888.53125 1159.699219 848.429688 1113.957031 848.429688 1048.363281 L 848.429688 656.664062 L 1061.648438 656.664062 L 1061.648438 388.296875 L 848.429688 388.296875 L 848.429688 105.988281 L 526.375 105.988281 L 526.375 388.296875 L 391.441406 388.296875 L 391.441406 656.664062 L 526.375 656.664062 L 526.375 1109.949219 C 526.375 1302.839844 661.945312 1440 854.792969 1440 C 941.992188 1440 1043.828125 1400.238281 1105.566406 1342.601562 Z M 1037.464844 1125.851562 " fill-opacity="1" fill-rule="nonzero"/></g></svg>