<svg xmlns="http://www.w3.org/2000/svg" xmlns:xlink="http://www.w3.org/1999/xlink" width="2000" zoomAndPan="magnify" viewBox="0 0 1500 1499.999933" height="2000" preserveAspectRatio="xMidYMid meet" version="1.0"><defs><clipPath id="ab24db8184"><path d="M 25 25.777344 L 1475 25.777344 L 1475 1474.027344 L 25 1474.027344 Z M 25 25.777344 " clip-rule="nonzero"/></clipPath></defs><g clip-path="url(#ab24db8184)"><path fill="#ffffff" d="M 528.507812 365.878906 C 524.34375 378.6875 528.441406 392.414062 538.9375 400.851562 L 632.394531 475.964844 L 600.9375 591.667969 C 597.40625 604.660156 602.160156 618.171875 613.0625 626.097656 C 623.964844 634.007812 638.277344 634.355469 649.542969 626.984375 L 749.863281 561.3125 L 850.183594 626.984375 C 855.59375 630.523438 861.703125 632.285156 867.796875 632.285156 C 874.40625 632.285156 881 630.214844 886.660156 626.097656 C 897.566406 618.179688 902.324219 604.660156 898.785156 591.667969 L 867.332031 475.96875 L 960.78125 400.855469 C 971.285156 392.421875 975.382812 378.691406 971.214844 365.878906 C 967.054688 353.0625 955.671875 344.363281 942.21875 343.714844 L 822.460938 337.875 L 779.902344 225.785156 C 775.125 213.195312 763.328125 205.054688 749.859375 205.054688 C 736.390625 205.054688 724.597656 213.191406 719.820312 225.78125 L 677.261719 337.878906 L 557.507812 343.714844 C 544.050781 344.363281 532.667969 353.0625 528.507812 365.878906 Z M 688.050781 382.667969 C 700.8125 382.042969 711.992188 373.921875 716.519531 361.976562 L 749.859375 274.179688 L 783.195312 361.988281 C 787.730469 373.925781 798.910156 382.042969 811.664062 382.667969 L 905.464844 387.242188 L 832.261719 446.074219 C 822.300781 454.082031 818.035156 467.222656 821.386719 479.546875 L 846.027344 570.171875 L 767.449219 518.730469 C 762.105469 515.234375 755.980469 513.488281 749.855469 513.488281 C 743.730469 513.488281 737.597656 515.238281 732.253906 518.734375 L 653.679688 570.171875 L 678.316406 479.554688 C 681.671875 467.222656 677.40625 454.078125 667.441406 446.074219 L 594.242188 387.242188 Z M 727.226562 131.460938 L 727.226562 48.410156 C 727.226562 35.910156 737.359375 25.777344 749.859375 25.777344 C 762.355469 25.777344 772.488281 35.910156 772.488281 48.410156 L 772.488281 131.460938 C 772.488281 143.960938 762.355469 154.09375 749.859375 154.09375 C 737.359375 154.09375 727.226562 143.960938 727.226562 131.460938 Z M 865.050781 265.550781 C 856.6875 256.261719 857.4375 241.949219 866.726562 233.585938 L 959.277344 150.25 C 968.566406 141.886719 982.875 142.636719 991.238281 151.925781 C 999.601562 161.214844 998.851562 175.527344 989.566406 183.886719 L 897.011719 267.222656 C 892.6875 271.121094 887.273438 273.039062 881.875 273.039062 C 875.6875 273.039062 869.519531 270.515625 865.050781 265.550781 Z M 508.476562 151.925781 C 516.835938 142.636719 531.144531 141.886719 540.441406 150.25 L 632.992188 233.585938 C 642.28125 241.949219 643.03125 256.261719 634.667969 265.550781 C 630.199219 270.511719 624.03125 273.039062 617.839844 273.039062 C 612.445312 273.039062 607.03125 271.121094 602.703125 267.222656 L 510.148438 183.886719 C 500.859375 175.527344 500.113281 161.214844 508.476562 151.925781 Z M 1040.207031 400.851562 L 1133.664062 475.964844 L 1102.207031 591.667969 C 1098.675781 604.660156 1103.433594 618.171875 1114.332031 626.097656 C 1125.226562 634.007812 1139.539062 634.351562 1150.816406 626.984375 L 1251.132812 561.3125 L 1351.453125 626.984375 C 1356.863281 630.523438 1362.972656 632.285156 1369.066406 632.285156 C 1375.675781 632.285156 1382.269531 630.214844 1387.929688 626.097656 C 1398.832031 618.183594 1403.589844 604.671875 1400.054688 591.667969 L 1368.601562 475.96875 L 1462.050781 400.855469 C 1472.550781 392.421875 1476.648438 378.695312 1472.484375 365.878906 C 1468.320312 353.0625 1456.9375 344.363281 1443.488281 343.714844 L 1323.730469 337.875 L 1281.171875 225.785156 C 1276.394531 213.195312 1264.601562 205.054688 1251.132812 205.054688 C 1237.660156 205.054688 1225.867188 213.191406 1221.089844 225.78125 L 1178.53125 337.875 L 1058.78125 343.710938 C 1045.320312 344.363281 1033.9375 353.0625 1029.777344 365.878906 C 1025.613281 378.691406 1029.707031 392.421875 1040.207031 400.851562 Z M 1189.316406 382.667969 C 1202.085938 382.042969 1213.265625 373.921875 1217.796875 361.976562 L 1251.128906 274.179688 L 1284.460938 361.972656 C 1288.996094 373.921875 1300.175781 382.042969 1312.9375 382.664062 L 1406.738281 387.238281 L 1333.542969 446.066406 C 1323.578125 454.074219 1319.304688 467.214844 1322.660156 479.542969 L 1347.296875 570.167969 L 1268.71875 518.730469 C 1263.375 515.230469 1257.25 513.484375 1251.125 513.484375 C 1244.996094 513.484375 1238.871094 515.234375 1233.523438 518.730469 L 1154.953125 570.167969 L 1179.589844 479.550781 C 1182.941406 467.222656 1178.675781 454.082031 1168.714844 446.070312 L 1095.511719 387.238281 Z M 37.660156 400.851562 L 131.117188 475.964844 L 99.660156 591.667969 C 96.132812 604.660156 100.886719 618.171875 111.785156 626.097656 C 122.691406 634.007812 137 634.355469 148.269531 626.984375 L 248.585938 561.3125 L 348.910156 626.984375 C 354.316406 630.523438 360.425781 632.285156 366.523438 632.285156 C 373.128906 632.285156 379.726562 630.214844 385.386719 626.097656 C 396.285156 618.183594 401.042969 604.671875 397.511719 591.667969 L 366.054688 475.96875 L 459.503906 400.855469 C 470 392.429688 474.101562 378.703125 469.9375 365.863281 C 465.769531 353.058594 454.382812 344.363281 440.945312 343.710938 L 321.183594 337.871094 L 278.628906 225.785156 C 273.851562 213.195312 262.054688 205.054688 248.585938 205.054688 C 235.117188 205.054688 223.320312 213.191406 218.542969 225.78125 L 175.988281 337.875 L 56.238281 343.710938 C 42.78125 344.363281 31.394531 353.0625 27.238281 365.863281 C 23.0625 378.683594 27.15625 392.417969 37.660156 400.851562 Z M 186.773438 382.667969 C 199.539062 382.042969 210.71875 373.921875 215.25 361.976562 L 248.585938 274.179688 L 281.914062 361.972656 C 286.449219 373.921875 297.632812 382.042969 310.390625 382.664062 L 404.191406 387.238281 L 331 446.066406 C 321.03125 454.074219 316.761719 467.214844 320.117188 479.542969 L 344.753906 570.167969 L 266.175781 518.730469 C 260.828125 515.230469 254.703125 513.484375 248.578125 513.484375 C 242.453125 513.484375 236.324219 515.234375 230.980469 518.730469 L 152.40625 570.167969 L 177.046875 479.550781 C 180.398438 467.222656 176.132812 454.082031 166.167969 446.070312 L 92.96875 387.238281 Z M 1470.515625 1227.902344 C 1454.589844 1176.476562 1421.976562 1130.304688 1378.671875 1097.878906 C 1357.941406 1082.355469 1335.367188 1070.265625 1311.550781 1061.703125 C 1344.566406 1035.789062 1365.84375 995.5625 1365.84375 950.429688 C 1365.84375 872.449219 1302.398438 809.003906 1224.414062 809.003906 C 1146.433594 809.003906 1082.988281 872.449219 1082.988281 950.429688 C 1082.988281 995.507812 1104.210938 1035.695312 1137.160156 1061.613281 C 1093 1077.375 1053.875 1105.070312 1023.910156 1142.390625 C 1009.910156 1122.800781 993.753906 1104.605469 975.597656 1088.183594 C 939.003906 1055.09375 896.066406 1030.792969 849.820312 1016.429688 C 898.859375 983.917969 931.28125 928.25 931.28125 865.132812 C 931.28125 765.101562 849.894531 683.71875 749.859375 683.71875 C 649.828125 683.71875 568.441406 765.101562 568.441406 865.132812 C 568.441406 928.25 600.859375 983.917969 649.898438 1016.429688 C 603.648438 1030.789062 560.710938 1055.09375 524.117188 1088.183594 C 505.960938 1104.605469 489.804688 1122.800781 475.804688 1142.390625 C 445.847656 1105.066406 406.722656 1077.371094 362.554688 1061.605469 C 395.503906 1035.6875 416.730469 995.5 416.730469 950.421875 C 416.730469 872.4375 353.285156 808.996094 275.304688 808.996094 C 197.320312 808.996094 133.875 872.4375 133.875 950.421875 C 133.875 995.550781 155.148438 1035.78125 188.164062 1061.695312 C 164.347656 1070.253906 141.773438 1082.347656 121.039062 1097.871094 C 77.738281 1130.292969 45.121094 1176.46875 29.199219 1227.890625 C 21.839844 1251.644531 25.914062 1275.75 40.675781 1295.773438 C 55.429688 1315.792969 77.253906 1326.8125 102.121094 1326.8125 L 414.984375 1326.8125 L 414.984375 1367.65625 C 414.984375 1426.414062 462.785156 1474.214844 521.542969 1474.214844 L 978.171875 1474.214844 C 1036.925781 1474.214844 1084.730469 1426.414062 1084.730469 1367.65625 L 1084.730469 1326.824219 L 1397.59375 1326.824219 C 1422.464844 1326.824219 1444.285156 1315.800781 1459.039062 1295.785156 C 1473.796875 1275.761719 1477.871094 1251.652344 1470.515625 1227.902344 Z M 1224.414062 854.269531 C 1277.441406 854.269531 1320.578125 897.40625 1320.578125 950.429688 C 1320.578125 1003.457031 1277.441406 1046.597656 1224.414062 1046.597656 C 1171.390625 1046.597656 1128.25 1003.457031 1128.25 950.429688 C 1128.25 897.40625 1171.390625 854.269531 1224.414062 854.269531 Z M 613.703125 865.132812 C 613.703125 790.058594 674.785156 728.980469 749.859375 728.980469 C 824.9375 728.980469 886.015625 790.058594 886.015625 865.132812 C 886.015625 940.1875 824.976562 1001.25 749.933594 1001.289062 C 749.910156 1001.289062 749.878906 1001.289062 749.859375 1001.289062 C 749.835938 1001.289062 749.808594 1001.289062 749.785156 1001.289062 C 674.742188 1001.246094 613.703125 940.183594 613.703125 865.132812 Z M 275.304688 854.257812 C 328.328125 854.257812 371.46875 897.394531 371.46875 950.417969 C 371.46875 1003.445312 328.328125 1046.585938 275.304688 1046.585938 C 222.277344 1046.585938 179.140625 1003.445312 179.140625 950.417969 C 179.140625 897.394531 222.277344 854.257812 275.304688 854.257812 Z M 417.925781 1281.546875 L 102.125 1281.546875 C 91.707031 1281.546875 83.292969 1277.296875 77.113281 1268.910156 C 70.929688 1260.527344 69.359375 1251.230469 72.4375 1241.28125 C 100.117188 1151.898438 181.644531 1091.847656 275.304688 1091.847656 C 346.152344 1091.847656 410.6875 1126.078125 450.382812 1184.027344 C 434.6875 1214.511719 423.699219 1247.371094 417.925781 1281.546875 Z M 1039.46875 1367.65625 C 1039.464844 1401.453125 1011.96875 1428.949219 978.171875 1428.949219 L 521.542969 1428.949219 C 487.746094 1428.949219 460.25 1401.453125 460.25 1367.65625 L 460.25 1305.410156 C 476.632812 1157.769531 600.894531 1046.589844 749.785156 1046.550781 C 749.808594 1046.550781 749.835938 1046.554688 749.859375 1046.554688 C 749.886719 1046.554688 749.910156 1046.550781 749.933594 1046.550781 C 898.820312 1046.589844 1023.078125 1157.769531 1039.46875 1305.410156 Z M 1422.605469 1268.925781 C 1416.425781 1277.308594 1408.015625 1281.558594 1397.59375 1281.558594 L 1081.796875 1281.558594 C 1076.019531 1247.378906 1065.027344 1214.519531 1049.339844 1184.03125 C 1089.035156 1126.089844 1153.570312 1091.859375 1224.414062 1091.859375 C 1318.070312 1091.859375 1399.601562 1151.914062 1427.277344 1241.296875 C 1430.359375 1251.238281 1428.785156 1260.535156 1422.605469 1268.925781 Z M 1422.605469 1268.925781 " fill-opacity="1" fill-rule="nonzero"/></g></svg>